# xmcd
#
# Track frame offsets: 
#        150
#        16700
#        33765
#        46803
#        62576
#        77125
#        92418
#        107964
#        122540
#        139367
#        155412
#        173799
#        189650
#
# Disc length: 2726 seconds
#
# Revision: 0
# Processed by: cddbd v1.5.1PL2 Copyright (c) Steve Scherf et al.
# Submitted via: ExactAudioCopy v0.95a5
#
DISCID=9c0aa40d
DTITLE=Wisrrah (Lorys and Nety) - Volume 1
DYEAR=2006
DGENRE=Country
TTITLE0=Nossa Festa
TTITLE1=Bye, Bye
TTITLE2=É Rodeio
TTITLE3=Canção Pra Você
TTITLE4=A Noite
TTITLE5=Ah! Safado!
TTITLE6=Galera do Chapéu (Clima)
TTITLE7=Peão de Caminhonete
TTITLE8=Mais Uma de Amor
TTITLE9=Na Balada
TTITLE10=Pra te Esperar
TTITLE11=Nossa festa (Play-Back)
TTITLE12=Canção Pra Você (Play-Back)
EXTD=
EXTT0=Nossa Festa
EXTT1=
EXTT2=
EXTT3=
EXTT4=
EXTT5=
EXTT6=
EXTT7=
EXTT8=
EXTT9=
EXTT10=
EXTT11=
EXTT12=
PLAYORDER=
